{
	"patcher" : 	{
		"fileversion" : 1,
		"rect" : [ 535.0, 193.0, 905.0, 703.0 ],
		"bglocked" : 0,
		"defrect" : [ 535.0, 193.0, 905.0, 703.0 ],
		"openrect" : [ 0.0, 0.0, 0.0, 0.0 ],
		"openinpresentation" : 0,
		"default_fontsize" : 12.0,
		"default_fontface" : 0,
		"default_fontname" : "Arial",
		"gridonopen" : 0,
		"gridsize" : [ 15.0, 15.0 ],
		"gridsnaponopen" : 0,
		"toolbarvisible" : 1,
		"boxanimatetime" : 200,
		"imprint" : 0,
		"metadata" : [  ],
		"boxes" : [ 			{
				"box" : 				{
					"maxclass" : "newobj",
					"text" : "s linreg",
					"numinlets" : 1,
					"fontsize" : 12.0,
					"patching_rect" : [ 531.0, 467.0, 49.0, 20.0 ],
					"numoutlets" : 0,
					"id" : "obj-25",
					"fontname" : "Arial"
				}

			}
, 			{
				"box" : 				{
					"maxclass" : "number",
					"numinlets" : 1,
					"fontsize" : 12.0,
					"patching_rect" : [ 531.0, 373.0, 50.0, 20.0 ],
					"numoutlets" : 2,
					"id" : "obj-24",
					"outlettype" : [ "int", "bang" ],
					"fontname" : "Arial"
				}

			}
, 			{
				"box" : 				{
					"maxclass" : "flonum",
					"numinlets" : 1,
					"fontsize" : 12.0,
					"patching_rect" : [ 749.0, 373.0, 50.0, 20.0 ],
					"numoutlets" : 2,
					"id" : "obj-21",
					"outlettype" : [ "float", "bang" ],
					"fontname" : "Arial"
				}

			}
, 			{
				"box" : 				{
					"maxclass" : "flonum",
					"numinlets" : 1,
					"fontsize" : 12.0,
					"patching_rect" : [ 652.0, 373.0, 50.0, 20.0 ],
					"numoutlets" : 2,
					"id" : "obj-18",
					"outlettype" : [ "float", "bang" ],
					"fontname" : "Arial"
				}

			}
, 			{
				"box" : 				{
					"maxclass" : "message",
					"text" : "training_rate $1",
					"numinlets" : 2,
					"fontsize" : 12.0,
					"patching_rect" : [ 749.0, 404.0, 94.0, 18.0 ],
					"numoutlets" : 1,
					"id" : "obj-16",
					"outlettype" : [ "" ],
					"fontname" : "Arial"
				}

			}
, 			{
				"box" : 				{
					"maxclass" : "message",
					"text" : "min_change $1",
					"numinlets" : 2,
					"fontsize" : 12.0,
					"patching_rect" : [ 652.0, 404.0, 93.0, 18.0 ],
					"numoutlets" : 1,
					"id" : "obj-14",
					"outlettype" : [ "" ],
					"fontname" : "Arial"
				}

			}
, 			{
				"box" : 				{
					"maxclass" : "message",
					"text" : "max_iterations $1",
					"numinlets" : 2,
					"fontsize" : 12.0,
					"patching_rect" : [ 531.0, 404.0, 105.0, 18.0 ],
					"numoutlets" : 1,
					"id" : "obj-12",
					"outlettype" : [ "" ],
					"fontname" : "Arial"
				}

			}
, 			{
				"box" : 				{
					"maxclass" : "comment",
					"text" : "Object-specific Attributes",
					"numinlets" : 1,
					"fontsize" : 12.0,
					"patching_rect" : [ 548.0, 304.0, 151.0, 20.0 ],
					"numoutlets" : 0,
					"id" : "obj-10",
					"fontname" : "Arial"
				}

			}
, 			{
				"box" : 				{
					"maxclass" : "newobj",
					"text" : "conformpath slash boot",
					"numinlets" : 1,
					"fontsize" : 12.0,
					"patching_rect" : [ 200.0, 151.0, 135.0, 20.0 ],
					"numoutlets" : 2,
					"id" : "obj-5",
					"outlettype" : [ "", "int" ],
					"fontname" : "Arial"
				}

			}
, 			{
				"box" : 				{
					"maxclass" : "button",
					"numinlets" : 1,
					"patching_rect" : [ 200.0, 104.0, 20.0, 20.0 ],
					"numoutlets" : 1,
					"id" : "obj-9",
					"outlettype" : [ "bang" ]
				}

			}
, 			{
				"box" : 				{
					"maxclass" : "newobj",
					"text" : "opendialog",
					"numinlets" : 1,
					"fontsize" : 12.0,
					"patching_rect" : [ 200.0, 130.0, 69.0, 20.0 ],
					"numoutlets" : 2,
					"id" : "obj-2",
					"outlettype" : [ "", "bang" ],
					"fontname" : "Arial"
				}

			}
, 			{
				"box" : 				{
					"maxclass" : "comment",
					"text" : "expect 1.5",
					"numinlets" : 1,
					"fontsize" : 12.0,
					"patching_rect" : [ 435.0, 150.0, 66.0, 20.0 ],
					"numoutlets" : 0,
					"id" : "obj-8",
					"fontname" : "Arial"
				}

			}
, 			{
				"box" : 				{
					"maxclass" : "message",
					"text" : "0.5 0.5",
					"numinlets" : 2,
					"fontsize" : 12.0,
					"patching_rect" : [ 386.0, 152.0, 47.0, 18.0 ],
					"numoutlets" : 1,
					"id" : "obj-4",
					"outlettype" : [ "" ],
					"fontname" : "Arial"
				}

			}
, 			{
				"box" : 				{
					"maxclass" : "message",
					"text" : "getprobs",
					"numinlets" : 2,
					"fontsize" : 12.0,
					"patching_rect" : [ 318.0, 356.0, 57.0, 18.0 ],
					"numoutlets" : 1,
					"id" : "obj-64",
					"outlettype" : [ "" ],
					"fontname" : "Arial"
				}

			}
, 			{
				"box" : 				{
					"maxclass" : "comment",
					"text" : "Common Attributes",
					"numinlets" : 1,
					"fontsize" : 12.0,
					"patching_rect" : [ 162.0, 286.0, 111.0, 20.0 ],
					"numoutlets" : 0,
					"id" : "obj-63",
					"fontname" : "Arial"
				}

			}
, 			{
				"box" : 				{
					"maxclass" : "message",
					"text" : "getscaling",
					"numinlets" : 2,
					"fontsize" : 12.0,
					"patching_rect" : [ 249.0, 356.0, 65.0, 18.0 ],
					"numoutlets" : 1,
					"id" : "obj-62",
					"outlettype" : [ "" ],
					"fontname" : "Arial"
				}

			}
, 			{
				"box" : 				{
					"maxclass" : "toggle",
					"numinlets" : 1,
					"patching_rect" : [ 187.0, 323.0, 20.0, 20.0 ],
					"numoutlets" : 1,
					"id" : "obj-59",
					"outlettype" : [ "int" ]
				}

			}
, 			{
				"box" : 				{
					"maxclass" : "message",
					"text" : "probs $1",
					"numinlets" : 2,
					"fontsize" : 12.0,
					"patching_rect" : [ 187.0, 356.0, 57.0, 18.0 ],
					"numoutlets" : 1,
					"id" : "obj-58",
					"outlettype" : [ "" ],
					"fontname" : "Arial"
				}

			}
, 			{
				"box" : 				{
					"maxclass" : "toggle",
					"numinlets" : 1,
					"patching_rect" : [ 118.0, 323.0, 20.0, 20.0 ],
					"numoutlets" : 1,
					"id" : "obj-57",
					"outlettype" : [ "int" ]
				}

			}
, 			{
				"box" : 				{
					"maxclass" : "message",
					"text" : "scaling $1",
					"numinlets" : 2,
					"fontsize" : 12.0,
					"patching_rect" : [ 118.0, 356.0, 65.0, 18.0 ],
					"numoutlets" : 1,
					"id" : "obj-55",
					"outlettype" : [ "" ],
					"fontname" : "Arial"
				}

			}
, 			{
				"box" : 				{
					"maxclass" : "newobj",
					"text" : "s logreg",
					"numinlets" : 1,
					"fontsize" : 12.0,
					"patching_rect" : [ 36.0, 452.0, 53.0, 20.0 ],
					"numoutlets" : 0,
					"id" : "obj-53",
					"fontname" : "Arial"
				}

			}
, 			{
				"box" : 				{
					"maxclass" : "newobj",
					"text" : "s logreg",
					"numinlets" : 1,
					"fontsize" : 12.0,
					"patching_rect" : [ 29.0, 237.0, 53.0, 20.0 ],
					"numoutlets" : 0,
					"id" : "obj-52",
					"fontname" : "Arial"
				}

			}
, 			{
				"box" : 				{
					"maxclass" : "newobj",
					"text" : "r logreg",
					"numinlets" : 0,
					"fontsize" : 12.0,
					"patching_rect" : [ 33.0, 535.0, 51.0, 20.0 ],
					"numoutlets" : 1,
					"id" : "obj-51",
					"outlettype" : [ "" ],
					"fontname" : "Arial"
				}

			}
, 			{
				"box" : 				{
					"maxclass" : "comment",
					"text" : "Common Messages",
					"numinlets" : 1,
					"fontsize" : 12.0,
					"patching_rect" : [ 162.0, 62.0, 117.0, 20.0 ],
					"numoutlets" : 0,
					"id" : "obj-49",
					"fontname" : "Arial"
				}

			}
, 			{
				"box" : 				{
					"maxclass" : "message",
					"text" : "0 1",
					"numinlets" : 2,
					"fontsize" : 12.0,
					"patching_rect" : [ 368.0, 128.0, 32.5, 18.0 ],
					"numoutlets" : 1,
					"id" : "obj-37",
					"outlettype" : [ "" ],
					"fontname" : "Arial"
				}

			}
, 			{
				"box" : 				{
					"maxclass" : "message",
					"text" : "1 0",
					"numinlets" : 2,
					"fontsize" : 12.0,
					"patching_rect" : [ 343.0, 106.0, 32.5, 18.0 ],
					"numoutlets" : 1,
					"id" : "obj-38",
					"outlettype" : [ "" ],
					"fontname" : "Arial"
				}

			}
, 			{
				"box" : 				{
					"maxclass" : "comment",
					"text" : "expect 1",
					"numinlets" : 1,
					"fontsize" : 12.0,
					"patching_rect" : [ 435.0, 123.0, 67.0, 20.0 ],
					"numoutlets" : 0,
					"id" : "obj-39",
					"fontname" : "Arial"
				}

			}
, 			{
				"box" : 				{
					"maxclass" : "comment",
					"text" : "expect 2",
					"numinlets" : 1,
					"fontsize" : 12.0,
					"patching_rect" : [ 435.0, 101.0, 67.0, 20.0 ],
					"numoutlets" : 0,
					"id" : "obj-40",
					"fontname" : "Arial"
				}

			}
, 			{
				"box" : 				{
					"maxclass" : "message",
					"text" : "/tmp/logreg.txt",
					"numinlets" : 2,
					"fontsize" : 12.0,
					"patching_rect" : [ 109.0, 103.0, 87.0, 18.0 ],
					"numoutlets" : 1,
					"id" : "obj-36",
					"outlettype" : [ "" ],
					"fontname" : "Arial"
				}

			}
, 			{
				"box" : 				{
					"maxclass" : "newobj",
					"text" : "prepend map",
					"numinlets" : 1,
					"fontsize" : 12.0,
					"patching_rect" : [ 343.0, 177.0, 81.0, 20.0 ],
					"numoutlets" : 1,
					"id" : "obj-28",
					"outlettype" : [ "" ],
					"fontname" : "Arial"
				}

			}
, 			{
				"box" : 				{
					"maxclass" : "message",
					"text" : "help",
					"numinlets" : 2,
					"fontsize" : 12.0,
					"patching_rect" : [ 584.0, 177.0, 33.0, 18.0 ],
					"numoutlets" : 1,
					"id" : "obj-29",
					"outlettype" : [ "" ],
					"fontname" : "Arial"
				}

			}
, 			{
				"box" : 				{
					"maxclass" : "newobj",
					"text" : "prepend load",
					"numinlets" : 1,
					"fontsize" : 12.0,
					"patching_rect" : [ 200.0, 174.0, 81.0, 20.0 ],
					"numoutlets" : 1,
					"id" : "obj-3",
					"outlettype" : [ "" ],
					"fontname" : "Arial"
				}

			}
, 			{
				"box" : 				{
					"maxclass" : "newobj",
					"text" : "prepend save",
					"numinlets" : 1,
					"fontsize" : 12.0,
					"patching_rect" : [ 109.0, 174.0, 83.0, 20.0 ],
					"numoutlets" : 1,
					"id" : "obj-30",
					"outlettype" : [ "" ],
					"fontname" : "Arial"
				}

			}
, 			{
				"box" : 				{
					"maxclass" : "newobj",
					"text" : "prepend add",
					"numinlets" : 1,
					"fontsize" : 12.0,
					"patching_rect" : [ 29.0, 174.0, 78.0, 20.0 ],
					"numoutlets" : 1,
					"id" : "obj-31",
					"outlettype" : [ "" ],
					"fontname" : "Arial"
				}

			}
, 			{
				"box" : 				{
					"maxclass" : "message",
					"text" : "train",
					"numinlets" : 2,
					"fontsize" : 12.0,
					"patching_rect" : [ 547.0, 177.0, 34.0, 18.0 ],
					"numoutlets" : 1,
					"id" : "obj-32",
					"outlettype" : [ "" ],
					"fontname" : "Arial"
				}

			}
, 			{
				"box" : 				{
					"maxclass" : "message",
					"text" : "clear",
					"numinlets" : 2,
					"fontsize" : 12.0,
					"patching_rect" : [ 508.0, 177.0, 37.0, 18.0 ],
					"numoutlets" : 1,
					"id" : "obj-33",
					"outlettype" : [ "" ],
					"fontname" : "Arial"
				}

			}
, 			{
				"box" : 				{
					"maxclass" : "message",
					"text" : "getattributes",
					"numinlets" : 2,
					"fontsize" : 12.0,
					"patching_rect" : [ 36.0, 356.0, 77.0, 18.0 ],
					"numoutlets" : 1,
					"id" : "obj-34",
					"outlettype" : [ "" ],
					"fontname" : "Arial"
				}

			}
, 			{
				"box" : 				{
					"maxclass" : "newobj",
					"text" : "print info",
					"numinlets" : 1,
					"fontsize" : 12.0,
					"patching_rect" : [ 74.0, 613.0, 57.0, 20.0 ],
					"numoutlets" : 0,
					"id" : "obj-7",
					"fontname" : "Arial"
				}

			}
, 			{
				"box" : 				{
					"maxclass" : "newobj",
					"text" : "print map",
					"numinlets" : 1,
					"fontsize" : 12.0,
					"patching_rect" : [ 33.0, 652.0, 77.0, 20.0 ],
					"numoutlets" : 0,
					"id" : "obj-6",
					"fontname" : "Arial"
				}

			}
, 			{
				"box" : 				{
					"maxclass" : "message",
					"text" : "2 1 0",
					"numinlets" : 2,
					"fontsize" : 12.0,
					"patching_rect" : [ 29.0, 103.0, 37.0, 18.0 ],
					"numoutlets" : 1,
					"id" : "obj-22",
					"outlettype" : [ "" ],
					"fontname" : "Arial"
				}

			}
, 			{
				"box" : 				{
					"maxclass" : "message",
					"text" : "1 0 1",
					"numinlets" : 2,
					"fontsize" : 12.0,
					"patching_rect" : [ 51.0, 134.0, 37.0, 18.0 ],
					"numoutlets" : 1,
					"id" : "obj-20",
					"outlettype" : [ "" ],
					"fontname" : "Arial"
				}

			}
, 			{
				"box" : 				{
					"maxclass" : "newobj",
					"text" : "ml.logreg",
					"numinlets" : 1,
					"fontsize" : 12.0,
					"patching_rect" : [ 33.0, 572.0, 60.0, 20.0 ],
					"numoutlets" : 2,
					"id" : "obj-1",
					"outlettype" : [ "", "" ],
					"fontname" : "Arial"
				}

			}
 ],
		"lines" : [ 			{
				"patchline" : 				{
					"source" : [ "obj-51", 0 ],
					"destination" : [ "obj-1", 0 ],
					"hidden" : 0,
					"midpoints" : [  ]
				}

			}
, 			{
				"patchline" : 				{
					"source" : [ "obj-1", 0 ],
					"destination" : [ "obj-6", 0 ],
					"hidden" : 0,
					"midpoints" : [  ]
				}

			}
, 			{
				"patchline" : 				{
					"source" : [ "obj-1", 1 ],
					"destination" : [ "obj-7", 0 ],
					"hidden" : 0,
					"midpoints" : [  ]
				}

			}
, 			{
				"patchline" : 				{
					"source" : [ "obj-5", 0 ],
					"destination" : [ "obj-3", 0 ],
					"hidden" : 0,
					"midpoints" : [  ]
				}

			}
, 			{
				"patchline" : 				{
					"source" : [ "obj-2", 0 ],
					"destination" : [ "obj-5", 0 ],
					"hidden" : 0,
					"midpoints" : [  ]
				}

			}
, 			{
				"patchline" : 				{
					"source" : [ "obj-4", 0 ],
					"destination" : [ "obj-28", 0 ],
					"hidden" : 0,
					"midpoints" : [  ]
				}

			}
, 			{
				"patchline" : 				{
					"source" : [ "obj-22", 0 ],
					"destination" : [ "obj-31", 0 ],
					"hidden" : 0,
					"midpoints" : [  ]
				}

			}
, 			{
				"patchline" : 				{
					"source" : [ "obj-20", 0 ],
					"destination" : [ "obj-31", 0 ],
					"hidden" : 0,
					"midpoints" : [  ]
				}

			}
, 			{
				"patchline" : 				{
					"source" : [ "obj-36", 0 ],
					"destination" : [ "obj-30", 0 ],
					"hidden" : 0,
					"midpoints" : [  ]
				}

			}
, 			{
				"patchline" : 				{
					"source" : [ "obj-38", 0 ],
					"destination" : [ "obj-28", 0 ],
					"hidden" : 0,
					"midpoints" : [  ]
				}

			}
, 			{
				"patchline" : 				{
					"source" : [ "obj-37", 0 ],
					"destination" : [ "obj-28", 0 ],
					"hidden" : 0,
					"midpoints" : [  ]
				}

			}
, 			{
				"patchline" : 				{
					"source" : [ "obj-57", 0 ],
					"destination" : [ "obj-55", 0 ],
					"hidden" : 0,
					"midpoints" : [  ]
				}

			}
, 			{
				"patchline" : 				{
					"source" : [ "obj-59", 0 ],
					"destination" : [ "obj-58", 0 ],
					"hidden" : 0,
					"midpoints" : [  ]
				}

			}
, 			{
				"patchline" : 				{
					"source" : [ "obj-29", 0 ],
					"destination" : [ "obj-52", 0 ],
					"hidden" : 0,
					"midpoints" : [  ]
				}

			}
, 			{
				"patchline" : 				{
					"source" : [ "obj-32", 0 ],
					"destination" : [ "obj-52", 0 ],
					"hidden" : 0,
					"midpoints" : [  ]
				}

			}
, 			{
				"patchline" : 				{
					"source" : [ "obj-33", 0 ],
					"destination" : [ "obj-52", 0 ],
					"hidden" : 0,
					"midpoints" : [  ]
				}

			}
, 			{
				"patchline" : 				{
					"source" : [ "obj-28", 0 ],
					"destination" : [ "obj-52", 0 ],
					"hidden" : 0,
					"midpoints" : [  ]
				}

			}
, 			{
				"patchline" : 				{
					"source" : [ "obj-3", 0 ],
					"destination" : [ "obj-52", 0 ],
					"hidden" : 0,
					"midpoints" : [  ]
				}

			}
, 			{
				"patchline" : 				{
					"source" : [ "obj-30", 0 ],
					"destination" : [ "obj-52", 0 ],
					"hidden" : 0,
					"midpoints" : [  ]
				}

			}
, 			{
				"patchline" : 				{
					"source" : [ "obj-31", 0 ],
					"destination" : [ "obj-52", 0 ],
					"hidden" : 0,
					"midpoints" : [  ]
				}

			}
, 			{
				"patchline" : 				{
					"source" : [ "obj-64", 0 ],
					"destination" : [ "obj-53", 0 ],
					"hidden" : 0,
					"midpoints" : [  ]
				}

			}
, 			{
				"patchline" : 				{
					"source" : [ "obj-62", 0 ],
					"destination" : [ "obj-53", 0 ],
					"hidden" : 0,
					"midpoints" : [  ]
				}

			}
, 			{
				"patchline" : 				{
					"source" : [ "obj-58", 0 ],
					"destination" : [ "obj-53", 0 ],
					"hidden" : 0,
					"midpoints" : [  ]
				}

			}
, 			{
				"patchline" : 				{
					"source" : [ "obj-55", 0 ],
					"destination" : [ "obj-53", 0 ],
					"hidden" : 0,
					"midpoints" : [  ]
				}

			}
, 			{
				"patchline" : 				{
					"source" : [ "obj-34", 0 ],
					"destination" : [ "obj-53", 0 ],
					"hidden" : 0,
					"midpoints" : [  ]
				}

			}
, 			{
				"patchline" : 				{
					"source" : [ "obj-9", 0 ],
					"destination" : [ "obj-2", 0 ],
					"hidden" : 0,
					"midpoints" : [  ]
				}

			}
, 			{
				"patchline" : 				{
					"source" : [ "obj-16", 0 ],
					"destination" : [ "obj-25", 0 ],
					"hidden" : 0,
					"midpoints" : [  ]
				}

			}
, 			{
				"patchline" : 				{
					"source" : [ "obj-14", 0 ],
					"destination" : [ "obj-25", 0 ],
					"hidden" : 0,
					"midpoints" : [  ]
				}

			}
, 			{
				"patchline" : 				{
					"source" : [ "obj-12", 0 ],
					"destination" : [ "obj-25", 0 ],
					"hidden" : 0,
					"midpoints" : [  ]
				}

			}
, 			{
				"patchline" : 				{
					"source" : [ "obj-24", 0 ],
					"destination" : [ "obj-12", 0 ],
					"hidden" : 0,
					"midpoints" : [  ]
				}

			}
, 			{
				"patchline" : 				{
					"source" : [ "obj-21", 0 ],
					"destination" : [ "obj-16", 0 ],
					"hidden" : 0,
					"midpoints" : [  ]
				}

			}
, 			{
				"patchline" : 				{
					"source" : [ "obj-18", 0 ],
					"destination" : [ "obj-14", 0 ],
					"hidden" : 0,
					"midpoints" : [  ]
				}

			}
 ]
	}

}
