#N canvas 550 63 821 216 10;
#N canvas 465 149 954 649 dtw 0;
#X msg 35 36 help;
#X obj 99 548 print info;
#X msg 61 76 clear;
#X msg 99 149 save /tmp/foo.txt;
#X msg 124 190 load /tmp/foo.txt;
#X obj 604 450 list prepend map;
#X obj 604 477 list trim;
#X obj 133 428 list trim;
#X obj 133 401 list prepend add;
#X obj 66 515 ml.dtw;
#X msg 282 408 record \$1;
#X obj 279 386 tgl 15 0 empty empty empty 17 7 0 10 -262144 -1 -1 0
1;
#X msg 283 149 train;
#X obj 257 52 tgl 15 0 empty empty empty 17 7 0 10 -262144 -1 -1 0
1;
#X obj 426 205 - 100;
#X obj 398 174 t a a;
#X obj 398 127 line;
#X msg 464 89 0;
#X msg 396 84 100 1000;
#X msg 487 212 1;
#X msg 518 214 2;
#X obj 398 245 pack f f 1;
#X msg 398 273 \$3 \$1 \$2;
#X obj 500 157 print;
#X obj 660 203 - 100;
#X obj 632 172 t a a;
#X obj 632 125 line;
#X msg 698 87 0;
#X msg 630 82 100 1000;
#X obj 734 155 print;
#X obj 632 243 pack f f;
#X msg 507 90 200 1000;
#X msg 456 63 100 0;
#X msg 741 88 200 1000;
#X obj 66 581 print label;
#X msg 247 89 probs \$1;
#X connect 0 0 9 0;
#X connect 2 0 9 0;
#X connect 3 0 9 0;
#X connect 4 0 9 0;
#X connect 5 0 6 0;
#X connect 6 0 9 0;
#X connect 7 0 9 0;
#X connect 8 0 7 0;
#X connect 9 0 34 0;
#X connect 9 1 1 0;
#X connect 10 0 9 0;
#X connect 11 0 10 0;
#X connect 12 0 9 0;
#X connect 13 0 35 0;
#X connect 14 0 21 1;
#X connect 15 0 21 0;
#X connect 15 1 14 0;
#X connect 16 0 15 0;
#X connect 16 0 23 0;
#X connect 17 0 16 0;
#X connect 18 0 16 0;
#X connect 19 0 21 2;
#X connect 20 0 21 2;
#X connect 21 0 22 0;
#X connect 22 0 8 0;
#X connect 24 0 30 1;
#X connect 25 0 30 0;
#X connect 25 1 24 0;
#X connect 26 0 25 0;
#X connect 26 0 29 0;
#X connect 27 0 26 0;
#X connect 28 0 26 0;
#X connect 30 0 5 0;
#X connect 31 0 16 0;
#X connect 32 0 16 0;
#X connect 33 0 26 0;
#X connect 35 0 9 0;
#X restore 145 49 pd dtw;
#X text 61 15 Patch to instantiate and test all externals within ml-lib
;
#N canvas 518 323 895 410 mlp 0;
#X obj 162 236 ml.mlp;
#X obj 155 139 list prepend add;
#X msg 290 39 train;
#X obj 265 139 list prepend map;
#X obj 195 281 print info;
#X obj 160 318 print map;
#X msg 463 28 clear;
#X msg 497 142 save /tmp/mlp.txt;
#X obj 155 184 list trim;
#X msg 155 29 0 0.5 1.2;
#X msg 169 58 1 1.2 0.5;
#X msg 182 82 2 0.1 0.3;
#X msg 349 37 0.5 1.2;
#X msg 368 75 1.2 0.5;
#X msg 402 112 0.1 0.3;
#X msg 539 204 load /tmp/mlp.txt;
#X msg 357 284 num_inputs 2;
#X msg 485 285 num_outputs 2;
#X msg 12 57 1 0 0 1;
#X msg 20 114 0 1 1 0;
#X msg 488 79 0 1;
#X msg 501 100 1 0;
#X msg 522 261 getnum_inputs;
#X msg 300 359 mode 1;
#X msg 528 238 getnum_outputs;
#X msg 472 340 getmode;
#X msg 641 241 getinput_activation_function;
#X msg 635 279 gethidden_activation_function;
#X msg 645 311 getoutput_activation_function;
#X msg 650 93 input_activation_function 0;
#X msg 404 358 help;
#X msg 562 358 mode 3;
#X msg 720 183 scaling 1;
#X msg 692 146 getscaling;
#X msg 588 35 load /Users/jamie/Desktop/ali_testdata.txt;
#X msg 417 181 probs 1;
#X msg 26 15 0.0083313 0.0143127 -1.00932;
#X connect 0 0 5 0;
#X connect 0 1 4 0;
#X connect 1 0 8 0;
#X connect 2 0 0 0;
#X connect 3 0 8 0;
#X connect 6 0 0 0;
#X connect 7 0 0 0;
#X connect 8 0 0 0;
#X connect 9 0 1 0;
#X connect 10 0 1 0;
#X connect 11 0 1 0;
#X connect 12 0 3 0;
#X connect 13 0 3 0;
#X connect 14 0 3 0;
#X connect 15 0 0 0;
#X connect 16 0 0 0;
#X connect 17 0 0 0;
#X connect 18 0 1 0;
#X connect 19 0 1 0;
#X connect 20 0 3 0;
#X connect 21 0 3 0;
#X connect 22 0 0 0;
#X connect 23 0 0 0;
#X connect 24 0 0 0;
#X connect 25 0 0 0;
#X connect 26 0 0 0;
#X connect 27 0 0 0;
#X connect 28 0 0 0;
#X connect 29 0 0 0;
#X connect 30 0 0 0;
#X connect 31 0 0 0;
#X connect 32 0 0 0;
#X connect 33 0 0 0;
#X connect 34 0 0 0;
#X connect 35 0 0 0;
#X connect 36 0 3 0;
#X restore 280 71 pd mlp;
#N canvas 471 193 1047 594 svm 0;
#X msg 72 47 type 1;
#X msg 320 71 bang;
#X msg 200 96 gettype;
#X msg 127 13 getattributes;
#X msg 493 35 weights 1:.3 2:.5 3:4;
#X msg 304 34 getweights;
#X msg 183 45 bang;
#X msg 505 336 train;
#X msg 460 430 save /tmp/model;
#X msg 387 12 clear;
#X msg 513 109 add 1 0 0 0 0;
#X msg 467 379 load /tmp/model;
#X msg 528 141 add 3 10 10 10 10;
#X obj 83 530 print predict;
#X obj 213 528 print info;
#X msg 586 515 cross_validation;
#X msg 498 74 add -1 -10 -10 -10 -10;
#X msg 409 36 normalize;
#X obj 711 263 tgl 15 0 empty empty empty 17 7 0 10 -262144 -1 -1 0
1;
#X msg 666 99 add 0 1 1 1 1;
#X msg 648 231 predict 1 1 1 1;
#X obj 771 128 list prepend add;
#X obj 771 156 list trim;
#X msg 698 419 1 1 1;
#X msg 738 418 2 2 2;
#X msg 789 419 3 3 3;
#X obj 738 462 list prepend predict;
#X obj 732 493 list trim;
#X msg 795 95 0 1 1 1;
#X msg 865 93 1 2 2 2;
#X msg 942 99 2 3 3 3;
#X msg 548 184 map 10 10 10 10;
#X msg 532 232 map 0 0 0 0;
#X msg 486 278 map -10 -10 -10 -10;
#X obj 87 468 ml.svm;
#X msg 815 232 enable_cross_validation 1;
#X msg 671 312 probs \$1;
#X connect 0 0 34 0;
#X connect 1 0 34 0;
#X connect 2 0 34 0;
#X connect 3 0 34 0;
#X connect 4 0 34 0;
#X connect 5 0 34 0;
#X connect 6 0 34 0;
#X connect 7 0 34 0;
#X connect 8 0 34 0;
#X connect 9 0 34 0;
#X connect 10 0 34 0;
#X connect 11 0 34 0;
#X connect 12 0 34 0;
#X connect 15 0 34 0;
#X connect 16 0 34 0;
#X connect 17 0 34 0;
#X connect 18 0 36 0;
#X connect 19 0 34 0;
#X connect 20 0 34 0;
#X connect 21 0 22 0;
#X connect 22 0 34 0;
#X connect 23 0 26 0;
#X connect 24 0 26 0;
#X connect 25 0 26 0;
#X connect 26 0 27 0;
#X connect 27 0 34 0;
#X connect 28 0 21 0;
#X connect 29 0 21 0;
#X connect 30 0 21 0;
#X connect 31 0 34 0;
#X connect 32 0 34 0;
#X connect 33 0 34 0;
#X connect 34 0 13 0;
#X connect 34 1 14 0;
#X connect 35 0 34 0;
#X connect 36 0 34 0;
#X restore 52 51 pd svm;
#N canvas 758 306 450 300 peak 0;
#X obj 189 188 ml.peak;
#X floatatom 229 105 5 0 0 0 - - -;
#X obj 279 238 print info;
#X obj 178 248 print peak;
#X msg 189 42 help;
#X msg 240 145 reset;
#X msg 292 146 timeout;
#X msg -16 91 threshold_crossing_mode 0;
#X msg -10 59 negative_threshold -2;
#X msg -17 23 positive_threshold 2;
#X msg -32 155 low_pass_filter_size 8;
#X connect 0 0 3 0;
#X connect 0 1 2 0;
#X connect 1 0 0 0;
#X connect 4 0 0 0;
#X connect 5 0 0 0;
#X connect 6 0 0 0;
#X connect 7 0 0 0;
#X connect 8 0 0 0;
#X connect 9 0 0 0;
#X connect 10 0 0 0;
#X restore 84 158 pd peak;
#N canvas 973 236 450 300 linreg 0;
#X obj 46 125 list prepend add;
#X obj 73 250 print mapped;
#X obj 224 235 print info;
#X msg 208 85 train;
#X obj 252 127 list prepend map;
#X msg 47 33 1 0 1;
#X msg 106 38 2 1 0;
#X msg 292 52 0 1;
#X msg 356 54 1 0;
#X obj 47 150 list trim;
#X msg 328 24 0.5 0.5;
#X obj 74 175 ml.linreg;
#X connect 0 0 9 0;
#X connect 3 0 11 0;
#X connect 4 0 9 0;
#X connect 5 0 0 0;
#X connect 6 0 0 0;
#X connect 7 0 4 0;
#X connect 8 0 4 0;
#X connect 9 0 11 0;
#X connect 10 0 4 0;
#X connect 11 0 1 0;
#X connect 11 1 2 0;
#X restore 368 72 pd linreg;
#N canvas 841 339 450 300 logreg 0;
#X obj 56 135 list prepend add;
#X obj 83 260 print mapped;
#X obj 234 245 print info;
#X msg 218 95 train;
#X obj 262 137 list prepend map;
#X obj 57 160 list trim;
#X msg 338 34 0.5 0.5;
#X msg 57 43 0 0.1 0.5;
#X msg 116 48 1 0.2 0.3;
#X msg 306 199 clear;
#X msg 302 62 0.1 0.5;
#X msg 366 64 0.2 0.3;
#X obj 84 185 ml.logreg;
#X connect 0 0 5 0;
#X connect 3 0 12 0;
#X connect 4 0 5 0;
#X connect 5 0 12 0;
#X connect 6 0 4 0;
#X connect 7 0 0 0;
#X connect 8 0 0 0;
#X connect 9 0 12 0;
#X connect 10 0 4 0;
#X connect 11 0 4 0;
#X connect 12 0 1 0;
#X connect 12 1 2 0;
#X restore 601 87 pd logreg;
