#N canvas 587 166 542 213 10;
#N canvas 589 175 954 649 dtw 0;
#X msg 35 36 help;
#X obj 66 581 print location;
#X obj 99 548 print info;
#X msg 61 76 clear;
#X msg 82 108 window_size 0.1;
#X msg 99 149 save /tmp/foo.txt;
#X msg 124 190 load /tmp/foo.txt;
#X obj 528 400 list prepend classify;
#X obj 528 427 list trim;
#X obj 133 428 list trim;
#X obj 133 401 list prepend add;
#X msg 153 242 1 2 3 0 5;
#X msg 156 269 2 0.1 0.5 0.1 0.5 0.1 0.5 0.1 0.5 0.1 0.5;
#X msg 157 297 3 1 3 5 7 -2 -20 100;
#X msg 158 324 4 0.1 0.2 0.3 0.1 0.2 -0.5;
#X msg 158 348 5 0.1 0.2 0.3 0.4 0.5 0.6 0.7 0.8 0.9 1 0 3 4 5 6 7
8 9 10 1 2 1 2 1 2;
#X msg 577 229 2 3 0 5;
#X msg 762 229 30 0 50;
#X msg 577 260 0.1 0.5 0.1 0.5 0.1 0.5 0.1 0.5 0.1 0.5;
#X msg 577 291 1 3 5 7 -2 -20 100;
#X msg 763 290 5 7 -2;
#X msg 577 322 0.1 0.2 0.3 0.1 0.2 -0.5;
#X msg 762 318 0.08 0.21 -0.51;
#X msg 577 353 9 10 1;
#X obj 66 515 ml.dtw;
#X connect 0 0 24 0;
#X connect 3 0 24 0;
#X connect 4 0 24 0;
#X connect 5 0 24 0;
#X connect 6 0 24 0;
#X connect 7 0 8 0;
#X connect 8 0 24 0;
#X connect 9 0 24 0;
#X connect 10 0 9 0;
#X connect 11 0 10 0;
#X connect 12 0 10 0;
#X connect 13 0 10 0;
#X connect 14 0 10 0;
#X connect 15 0 10 0;
#X connect 16 0 7 0;
#X connect 17 0 7 0;
#X connect 18 0 7 0;
#X connect 19 0 7 0;
#X connect 20 0 7 0;
#X connect 21 0 7 0;
#X connect 22 0 7 0;
#X connect 23 0 7 0;
#X connect 24 0 1 0;
#X connect 24 1 2 0;
#X restore 145 49 pd dtw;
#X text 61 15 Patch to instantiate and test all externals within ml-lib
;
#N canvas 518 323 895 410 mlp 0;
#X obj 162 236 ml.mlp;
#X obj 155 139 list prepend add;
#X msg 290 39 train;
#X obj 265 139 list prepend classify;
#X obj 195 281 print info;
#X obj 160 318 print classify;
#X msg 463 28 clear;
#X msg 497 142 save /tmp/mlp.txt;
#X obj 155 184 list trim;
#X msg 155 29 0 0.5 1.2;
#X msg 169 58 1 1.2 0.5;
#X msg 182 82 2 0.1 0.3;
#X msg 349 37 0.5 1.2;
#X msg 368 75 1.2 0.5;
#X msg 402 112 0.1 0.3;
#X msg 539 204 load /tmp/mlp.txt;
#X msg 357 284 num_inputs 2;
#X msg 485 285 num_outputs 2;
#X msg 12 57 1 0 0 1;
#X msg 20 114 0 1 1 0;
#X msg 488 79 0 1;
#X msg 501 100 1 0;
#X msg 522 261 getnum_inputs;
#X msg 300 359 mode 1;
#X msg 528 238 getnum_outputs;
#X msg 472 340 getmode;
#X msg 641 241 getinput_activation_function;
#X msg 635 279 gethidden_activation_function;
#X msg 645 311 getoutput_activation_function;
#X msg 650 93 input_activation_function 0;
#X msg 404 358 help;
#X msg 562 358 mode 3;
#X msg 720 183 enable_scaling 1;
#X msg 692 146 getenable_scaling;
#X connect 0 0 5 0;
#X connect 0 1 4 0;
#X connect 1 0 8 0;
#X connect 2 0 0 0;
#X connect 3 0 8 0;
#X connect 6 0 0 0;
#X connect 7 0 0 0;
#X connect 8 0 0 0;
#X connect 9 0 1 0;
#X connect 10 0 1 0;
#X connect 11 0 1 0;
#X connect 12 0 3 0;
#X connect 13 0 3 0;
#X connect 14 0 3 0;
#X connect 15 0 0 0;
#X connect 16 0 0 0;
#X connect 17 0 0 0;
#X connect 18 0 1 0;
#X connect 19 0 1 0;
#X connect 20 0 3 0;
#X connect 21 0 3 0;
#X connect 22 0 0 0;
#X connect 23 0 0 0;
#X connect 24 0 0 0;
#X connect 25 0 0 0;
#X connect 26 0 0 0;
#X connect 27 0 0 0;
#X connect 28 0 0 0;
#X connect 29 0 0 0;
#X connect 30 0 0 0;
#X connect 31 0 0 0;
#X connect 32 0 0 0;
#X connect 33 0 0 0;
#X restore 280 71 pd mlp;
#N canvas 471 193 1047 594 svm 0;
#X msg 72 47 type 1;
#X msg 320 71 bang;
#X msg 200 96 gettype;
#X msg 127 13 getattributes;
#X msg 493 35 weights 1:.3 2:.5 3:4;
#X msg 304 34 getweights;
#X msg 183 45 bang;
#X msg 505 336 train;
#X msg 460 430 save /tmp/model;
#X msg 387 12 clear;
#X msg 513 109 add 1 0 0 0 0;
#X msg 467 379 load /tmp/model;
#X msg 528 141 add 3 10 10 10 10;
#X obj 83 530 print predict;
#X obj 213 528 print info;
#X msg 586 515 cross_validation;
#X msg 498 74 add -1 -10 -10 -10 -10;
#X msg 409 36 normalize;
#X msg 671 312 estimates \$1;
#X obj 711 263 tgl 15 0 empty empty empty 17 7 0 10 -262144 -1 -1 0
1;
#X msg 666 99 add 0 1 1 1 1;
#X msg 648 231 predict 1 1 1 1;
#X obj 771 128 list prepend add;
#X obj 771 156 list trim;
#X msg 698 419 1 1 1;
#X msg 738 418 2 2 2;
#X msg 789 419 3 3 3;
#X obj 738 462 list prepend predict;
#X obj 732 493 list trim;
#X msg 795 95 0 1 1 1;
#X msg 865 93 1 2 2 2;
#X msg 942 99 2 3 3 3;
#X msg 834 299 estimates 1;
#X msg 548 184 classify 10 10 10 10;
#X msg 532 232 classify 0 0 0 0;
#X msg 486 278 classify -10 -10 -10 -10;
#X obj 87 468 ml.svm;
#X msg 815 232 enable_cross_validation 1;
#X connect 0 0 36 0;
#X connect 1 0 36 0;
#X connect 2 0 36 0;
#X connect 3 0 36 0;
#X connect 4 0 36 0;
#X connect 5 0 36 0;
#X connect 6 0 36 0;
#X connect 7 0 36 0;
#X connect 8 0 36 0;
#X connect 9 0 36 0;
#X connect 10 0 36 0;
#X connect 11 0 36 0;
#X connect 12 0 36 0;
#X connect 15 0 36 0;
#X connect 16 0 36 0;
#X connect 17 0 36 0;
#X connect 18 0 36 0;
#X connect 19 0 18 0;
#X connect 20 0 36 0;
#X connect 21 0 36 0;
#X connect 22 0 23 0;
#X connect 23 0 36 0;
#X connect 24 0 27 0;
#X connect 25 0 27 0;
#X connect 26 0 27 0;
#X connect 27 0 28 0;
#X connect 28 0 36 0;
#X connect 29 0 22 0;
#X connect 30 0 22 0;
#X connect 31 0 22 0;
#X connect 32 0 36 0;
#X connect 33 0 36 0;
#X connect 34 0 36 0;
#X connect 35 0 36 0;
#X connect 36 0 13 0;
#X connect 36 1 14 0;
#X connect 37 0 36 0;
#X restore 52 51 pd svm;
#N canvas 973 236 450 300 regression.linear 0;
#X obj 74 175 ml.regression.linear;
#X obj 46 125 list prepend add;
#X obj 73 250 print mapped;
#X obj 224 235 print info;
#X msg 208 85 train;
#X obj 252 127 list prepend classify;
#X msg 47 33 1 0 1;
#X msg 106 38 2 1 0;
#X msg 292 52 0 1;
#X msg 356 54 1 0;
#X obj 47 150 list trim;
#X msg 328 24 0.5 0.5;
#X connect 0 0 2 0;
#X connect 0 1 3 0;
#X connect 1 0 10 0;
#X connect 4 0 0 0;
#X connect 5 0 10 0;
#X connect 6 0 1 0;
#X connect 7 0 1 0;
#X connect 8 0 5 0;
#X connect 9 0 5 0;
#X connect 10 0 0 0;
#X connect 11 0 5 0;
#X restore 368 72 pd regression.linear;
