#N canvas 300 22 1098 739 10;
#X declare -stdpath extra/oscx;
#X msg 357 -923 type 1;
#X msg 375 -817 bang;
#X msg 354 -947 getattributes;
#X msg 370 -698 weights 1:.3 2:.5 3:4;
#X msg 358 -850 getweights;
#X msg 353 -976 bang;
#X msg 373 -746 normalise;
#X msg 388 -464 train;
#X msg 466 -330 save /tmp/model;
#X msg 372 -781 clear;
#X msg 390 -624 add 1 0 0 0 0;
#X msg 444 -356 load /tmp/model;
#X msg 383 -535 predict 10 10 10 10;
#X msg 380 -498 estimates 0;
#X msg 381 -416 cross_validation;
#X msg 375 -659 add -1 -10 -10 -10 -10;
#X floatatom 161 -311 5 0 0 0 - - -;
#X msg 287 -244 train 1;
#X text 531 -625 add feature vecture "0 0 0 0" to category "1";
#X text 529 -660 is there something special about category "-1"?;
#X text 401 -976 what does this do?;
#X text 434 -854 this reports "weights" out of the right outlet but
nothing else \, i.e. not the weights themselves?;
#X msg 357 -889 getkernel;
#X text 431 -463 what does this do?;
#X text 443 -746 this should report "normlise 1" instead of "normalized"
;
#X text 412 -781 clear model;
#X text 430 -887 get present value of each attribute (works with all
attributes);
#X text 415 -818 what does this do?;
#X text 447 -947 get a list of all available attributes;
#X text 406 -924 set value of an attribute (works with all attributes)
;
#X text 536 -593 add feature vecture "1.5 3.6 2 6.2" to category "3"
;
#X text 512 -534 predict category for new feature vector;
#X text 530 -701 what does this do?;
#X text 486 -416 what does this do?;
#X text 115 -285 predicted category;
#X msg 405 -592 add 2 1.5 3.6 2 6.2;
#N canvas 434 39 838 738 test 0;
#X text 294 280 class;
#X obj 275 636 outlet;
#X msg 72 136 clear;
#X obj 170 280 hradio 15 1 0 8 empty empty empty 0 -8 0 10 -262144
-1 -1 0;
#X floatatom 237 403 5 0 0 0 - - -;
#X obj 472 114 OSCroute /accxyz;
#X msg 568 261 -0.0613251 -0.21756 -0.962067;
#X msg 70 165 normalise;
#X msg 69 201 train;
#X msg 428 638 add 4 -0.979645 -0.136032 -0.227539;
#X obj 187 342 t b float;
#X text 19 134 1 clear;
#X text 162 251 3 give examples;
#X text 184 51 2 training mode;
#X text 16 201 4 train;
#X text 317 52 5 mapping mode;
#X text 490 78 from TouchOSC;
#X text 540 287 accelerometer data from mobile phone;
#X obj 461 404 list prepend map;
#X obj 338 479 list prepend;
#X obj 337 500 list prepend add;
#X obj 424 556 list prepend set;
#X obj 334 386 list append;
#X obj 566 164 list prepend set;
#X obj 458 224 spigot;
#X obj 400 224 spigot;
#X obj 338 74 bng 15 250 50 0 empty empty empty 17 7 0 10 -262144 -1
-1;
#X obj 224 79 bng 15 250 50 0 empty empty empty 17 7 0 10 -262144 -1
-1;
#X obj 465 46 dumpOSC 8000;
#X obj 566 208 list trim;
#X obj 461 505 list trim;
#X obj 306 557 list trim;
#X obj 436 594 list trim;
#X obj 169 308 + 1;
#X msg 616 582 -0.0652771 0.046875 0.9832;
#X text 588 608 accelerometer data from mobile phone;
#X obj 614 485 list prepend set;
#X obj 614 529 list trim;
#X msg 614 428 -0.00930786 0.0159302 0.99588;
#X text 586 454 accelerometer data from mobile phone;
#X obj 612 331 list prepend set;
#X obj 612 375 list trim;
#X obj 420 302 bng 15 250 50 0 empty empty empty 17 7 0 10 -262144
-1 -1;
#X obj 485 301 bng 15 250 50 0 empty empty empty 17 7 0 10 -262144
-1 -1;
#X msg 227 154 1;
#X msg 256 153 0;
#X obj 224 123 t bang bang;
#X obj 338 126 t bang bang;
#X msg 341 154 1;
#X msg 370 153 0;
#X connect 2 0 1 0;
#X connect 3 0 33 0;
#X connect 5 0 23 0;
#X connect 5 0 24 0;
#X connect 5 0 25 0;
#X connect 7 0 1 0;
#X connect 8 0 1 0;
#X connect 10 0 22 0;
#X connect 10 1 4 0;
#X connect 10 1 19 1;
#X connect 18 0 30 0;
#X connect 19 0 20 0;
#X connect 20 0 21 0;
#X connect 20 0 31 0;
#X connect 21 0 32 0;
#X connect 22 0 19 0;
#X connect 23 0 29 0;
#X connect 24 0 18 0;
#X connect 24 0 40 0;
#X connect 24 0 43 0;
#X connect 25 0 22 1;
#X connect 25 0 36 0;
#X connect 25 0 42 0;
#X connect 26 0 47 0;
#X connect 27 0 46 0;
#X connect 28 0 5 0;
#X connect 29 0 6 0;
#X connect 30 0 1 0;
#X connect 31 0 1 0;
#X connect 32 0 9 0;
#X connect 33 0 10 0;
#X connect 36 0 37 0;
#X connect 37 0 34 0;
#X connect 40 0 41 0;
#X connect 41 0 38 0;
#X connect 44 0 25 1;
#X connect 45 0 24 1;
#X connect 46 0 44 0;
#X connect 46 1 45 0;
#X connect 47 0 48 0;
#X connect 47 1 49 0;
#X connect 48 0 24 1;
#X connect 49 0 25 1;
#X restore 43 -543 pd test;
#X obj 287 -294 list prepend set;
#X obj 287 -271 list trim;
#X obj 41 -909 declare -stdpath extra/oscx;
#X obj 159 -348 ml.svm;
#X connect 0 0 40 0;
#X connect 1 0 40 0;
#X connect 2 0 40 0;
#X connect 3 0 40 0;
#X connect 4 0 40 0;
#X connect 5 0 40 0;
#X connect 6 0 40 0;
#X connect 7 0 40 0;
#X connect 8 0 40 0;
#X connect 9 0 40 0;
#X connect 10 0 40 0;
#X connect 11 0 40 0;
#X connect 12 0 40 0;
#X connect 13 0 40 0;
#X connect 14 0 40 0;
#X connect 15 0 40 0;
#X connect 22 0 40 0;
#X connect 35 0 40 0;
#X connect 36 0 40 0;
#X connect 37 0 38 0;
#X connect 38 0 17 0;
#X connect 40 0 16 0;
#X connect 40 1 37 0;
